<svg width="25" height="24" viewBox="0 0 25 24" fill="none" xmlns="http://www.w3.org/2000/svg">
<path fill-rule="evenodd" clip-rule="evenodd" d="M5.84784 12C5.29555 12 4.84784 12.4477 4.84784 13V20C4.84784 20.5523 5.29555 21 5.84784 21H19.8478C20.4001 21 20.8478 20.5523 20.8478 20V13C20.8478 12.4477 20.4001 12 19.8478 12H5.84784ZM2.84784 13C2.84784 11.3431 4.19099 10 5.84784 10H19.8478C21.5047 10 22.8478 11.3431 22.8478 13V20C22.8478 21.6569 21.5047 23 19.8478 23H5.84784C4.19099 23 2.84784 21.6569 2.84784 20V13Z" fill="#757575"/>
<path fill-rule="evenodd" clip-rule="evenodd" d="M12.8478 3C11.787 3 10.7696 3.42143 10.0194 4.17157C9.26927 4.92172 8.84784 5.93913 8.84784 7V11C8.84784 11.5523 8.40012 12 7.84784 12C7.29555 12 6.84784 11.5523 6.84784 11V7C6.84784 5.4087 7.47998 3.88258 8.6052 2.75736C9.73042 1.63214 11.2565 1 12.8478 1C14.4391 1 15.9653 1.63214 17.0905 2.75736C18.2157 3.88258 18.8478 5.4087 18.8478 7V11C18.8478 11.5523 18.4001 12 17.8478 12C17.2956 12 16.8478 11.5523 16.8478 11V7C16.8478 5.93913 16.4264 4.92172 15.6763 4.17157C14.9261 3.42143 13.9087 3 12.8478 3Z" fill="#757575"/>
</svg>
