<svg width="5" height="21" viewBox="0 0 5 21" fill="none" xmlns="http://www.w3.org/2000/svg">
<mask id="mask0" mask-type="alpha" maskUnits="userSpaceOnUse" x="0" y="0" width="5" height="6">
<path fill-rule="evenodd" clip-rule="evenodd" d="M2.5 5.06024C3.88071 5.06024 5 3.92747 5 2.53012C5 1.13277 3.88071 0 2.5 0C1.11929 0 0 1.13277 0 2.53012C0 3.92747 1.11929 5.06024 2.5 5.06024Z" fill="white"/>
</mask>
<g mask="url(#mask0)">
<path fill-rule="evenodd" clip-rule="evenodd" d="M2.5 5.06024C3.88071 5.06024 5 3.92747 5 2.53012C5 1.13277 3.88071 0 2.5 0C1.11929 0 0 1.13277 0 2.53012C0 3.92747 1.11929 5.06024 2.5 5.06024Z" fill="#767676"/>
</g>
<mask id="mask1" mask-type="alpha" maskUnits="userSpaceOnUse" x="0" y="7" width="5" height="6">
<path fill-rule="evenodd" clip-rule="evenodd" d="M2.5 12.9036C3.88071 12.9036 5 11.7709 5 10.3735C5 8.97616 3.88071 7.84338 2.5 7.84338C1.11929 7.84338 0 8.97616 0 10.3735C0 11.7709 1.11929 12.9036 2.5 12.9036Z" fill="white"/>
</mask>
<g mask="url(#mask1)">
<path fill-rule="evenodd" clip-rule="evenodd" d="M2.5 12.9036C3.88071 12.9036 5 11.7709 5 10.3735C5 8.97616 3.88071 7.84338 2.5 7.84338C1.11929 7.84338 0 8.97616 0 10.3735C0 11.7709 1.11929 12.9036 2.5 12.9036Z" fill="#767676"/>
</g>
<mask id="mask2" mask-type="alpha" maskUnits="userSpaceOnUse" x="0" y="15" width="5" height="6">
<path fill-rule="evenodd" clip-rule="evenodd" d="M2.5 21C3.88071 21 5 19.8672 5 18.4699C5 17.0725 3.88071 15.9398 2.5 15.9398C1.11929 15.9398 0 17.0725 0 18.4699C0 19.8672 1.11929 21 2.5 21Z" fill="white"/>
</mask>
<g mask="url(#mask2)">
<path fill-rule="evenodd" clip-rule="evenodd" d="M2.5 21C3.88071 21 5 19.8672 5 18.4699C5 17.0725 3.88071 15.9398 2.5 15.9398C1.11929 15.9398 0 17.0725 0 18.4699C0 19.8672 1.11929 21 2.5 21Z" fill="#767676"/>
</g>
</svg>
