<svg width="25" height="25" viewBox="0 0 25 25" fill="none" xmlns="http://www.w3.org/2000/svg">
<path d="M24.2304 5.76686C24.2299 5.7663 24.2293 5.76569 24.2287 5.76513L19.4283 0.883802C19.3519 0.804938 19.2468 0.76182 19.138 0.764616C19.0294 0.766599 18.9263 0.81348 18.8525 0.894531L17.3664 2.52164C17.2214 2.68039 17.2242 2.92679 17.3726 3.08213L17.4853 3.19994L16.8952 3.79994L15.9631 3.56319C15.1271 3.35513 14.245 3.60987 13.6414 4.23377L11.941 6.24879L9.96521 4.23972C9.40196 3.66372 8.56593 3.46292 7.80876 3.72169C7.76355 3.73714 7.7214 3.76053 7.68414 3.79079L7.57553 3.87977L7.31221 3.61206L7.82946 3.0861C7.98567 2.92735 7.98572 2.66986 7.82961 2.51106C7.82956 2.51101 7.82951 2.51096 7.82946 2.51091L6.2293 0.883802C6.07319 0.724955 5.81996 0.724905 5.6638 0.88365C5.66375 0.8837 5.6637 0.883751 5.66365 0.883802L0.463146 6.17191C0.306931 6.33065 0.306881 6.58814 0.462996 6.74694C0.463046 6.74699 0.463096 6.74704 0.463146 6.74709L2.0633 8.3742C2.21942 8.53305 2.47264 8.5331 2.62886 8.37436C2.62891 8.3743 2.62896 8.37425 2.62901 8.3742L2.80967 8.19049L3.75761 9.1544L3.52479 10.1022C3.32057 10.9399 3.5606 11.8252 4.15805 12.4381L7.54668 15.9829V19.163C7.55403 19.8921 7.95637 20.5575 8.59288 20.8933C8.93416 21.078 9.14728 21.4393 9.14683 21.8324V21.917H8.7468C8.52597 21.9169 8.34691 22.0988 8.34676 22.3234C8.34676 22.3235 8.34676 22.3237 8.34676 22.3238V24.3577C8.34661 24.5823 8.52552 24.7643 8.74635 24.7645C8.7465 24.7645 8.74665 24.7645 8.7468 24.7645H16.3475C16.5684 24.7646 16.7474 24.5827 16.7476 24.3582C16.7476 24.358 16.7476 24.3579 16.7476 24.3577V22.3238C16.7477 22.0993 16.5688 21.9172 16.348 21.917C16.3478 21.917 16.3477 21.917 16.3475 21.917H15.9475V21.5083L16.5816 20.9136C17.1883 20.4468 17.5457 19.7186 17.5476 18.9449V14.1797C18.0213 14.1218 18.4617 13.9022 18.7966 13.5567L20.9113 11.2216C21.4084 10.7198 21.5814 9.97421 21.3574 9.29937C21.2933 9.1032 21.6379 8.4612 22.0484 7.96885C22.1217 8.04278 22.2203 8.08498 22.3235 8.08656H22.3274C22.4327 8.08656 22.5338 8.04431 22.6087 7.96895L24.2272 6.34184C24.3843 6.18401 24.3857 5.92657 24.2304 5.76686ZM2.34618 7.51143L1.31173 6.4595L5.94653 1.74658L6.98103 2.79845L2.34618 7.51143ZM7.58213 14.8528L4.72766 11.8668C4.32607 11.4558 4.16425 10.8617 4.30067 10.2993L4.58859 9.12822C4.62285 8.98966 4.58289 8.84301 4.48348 8.74208L3.37538 7.61531L6.7466 4.18729L7.26385 4.71326C7.40832 4.86005 7.63829 4.87271 7.7975 4.74265L8.12604 4.47372C8.57998 4.34467 9.06713 4.47519 9.39961 4.81495L11.6048 7.05731L11.601 7.06021C11.4226 7.22694 11.2895 7.43785 11.215 7.67236C10.9671 7.53573 10.6846 7.47802 10.404 7.5067C9.67789 7.603 9.13763 8.23671 9.14683 8.98127V13.2353C8.35121 13.4024 7.7333 14.0411 7.58213 14.8528ZM15.9475 23.9509H9.14683V22.7306H15.9475V23.9509ZM16.7476 18.9449C16.7429 19.4765 16.4918 19.9748 16.0702 20.2892L15.2767 21.0304C15.1943 21.1075 15.1474 21.2161 15.1474 21.33V21.9171H9.94691V21.8325C9.94781 21.1387 9.57158 20.5012 8.96907 20.1756C8.59368 19.9807 8.35446 19.5914 8.34676 19.163V15.2283C8.34831 14.7129 8.66869 14.2542 9.14683 14.0829V16.629H9.94691V8.98122C9.93466 8.65341 10.1651 8.3679 10.4837 8.31624C10.6534 8.29844 10.8226 8.35458 10.9494 8.47076C11.0758 8.58588 11.1478 8.75057 11.147 8.9232V15.0018H11.9471V8.10965C11.9469 7.77278 12.2152 7.49953 12.5465 7.49928C12.565 7.49928 12.5835 7.50014 12.6019 7.50182C12.9258 7.55673 13.1593 7.84773 13.1472 8.18149V15.0018H13.9473V9.32998C13.947 8.99312 14.2154 8.71986 14.5467 8.71961C14.5652 8.71961 14.5837 8.72047 14.6021 8.72215C14.926 8.77707 15.1595 9.06806 15.1474 9.40182V15.0018H15.9475V11.6422C16.4256 11.8134 16.746 12.2721 16.7476 12.7875V18.9449ZM20.5987 9.55681C20.7258 9.94518 20.623 10.3732 20.3342 10.6584L18.2196 12.9934C18.0366 13.1814 17.8027 13.3096 17.5476 13.3616V12.7876C17.5463 11.8215 16.878 10.9891 15.9474 10.7946V9.40188C15.9615 8.64573 15.41 8.0017 14.6715 7.9118C14.4207 7.89034 14.1687 7.93697 13.9413 8.04685C13.8942 7.34302 13.3604 6.77333 12.6713 6.69147C12.6543 6.68999 12.6376 6.69325 12.6206 6.69243L14.2277 4.78632C14.6319 4.37812 15.2161 4.21358 15.7693 4.35214L16.9209 4.64492C17.0572 4.67965 17.2014 4.63907 17.3007 4.53804L18.043 3.78321L21.4898 7.38751C21.1206 7.82307 20.3621 8.83529 20.5987 9.55681ZM22.3329 7.10221L18.2114 2.7921L19.156 1.75726L23.3787 6.05105L22.3329 7.10221Z" fill="#6C6C6C"/>
</svg>
