<svg width="22" height="20" viewBox="0 0 22 20" fill="none" xmlns="http://www.w3.org/2000/svg">
<path d="M21.4332 6.29402C20.6792 5.60863 19.4524 5.60867 18.6982 6.29418C18.4663 6.50523 16.9852 7.85262 16.759 8.05848V3.41508C16.759 2.94555 16.5578 2.50414 16.1926 2.17215L14.3695 0.514844C14.0043 0.182813 13.5187 0 13.0021 0H1.93373C0.867471 0 0 0.788555 0 1.75781V18.2422C0 19.2114 0.867471 20 1.93373 20H14.8253C15.8915 20 16.759 19.2114 16.759 18.2422V13.0325L21.4331 8.77996C22.1889 8.09301 22.189 6.98105 21.4332 6.29402ZM12.8916 1.17188C13.0134 1.17188 13.248 1.1527 13.4579 1.34348L15.2811 3.00078C15.4856 3.18676 15.4699 3.39055 15.4699 3.51562H12.8916V1.17188ZM15.4698 18.2422C15.4698 18.5653 15.1807 18.8281 14.8253 18.8281H1.93373C1.57831 18.8281 1.28915 18.5653 1.28915 18.2422V1.75781C1.28915 1.43473 1.57831 1.17188 1.93373 1.17188H11.6024V4.10156C11.6024 4.42516 11.891 4.6875 12.247 4.6875H15.4698V9.23137C15.4698 9.23137 13.5682 10.9615 13.5681 10.9616L12.657 11.7898C12.5862 11.8541 12.5328 11.9326 12.5012 12.0189L11.5896 14.5048C11.5124 14.7154 11.5727 14.9475 11.7453 15.1044C11.9182 15.2616 12.1737 15.3161 12.405 15.246L15.1397 14.4173C15.2346 14.3886 15.3209 14.3401 15.3916 14.2758L15.4698 14.2047V18.2422ZM14.0243 12.2042L14.9358 13.0328L14.5876 13.3493L13.2203 13.7636L13.6761 12.5207L14.0243 12.2042ZM15.8472 12.204L14.9357 11.3754C15.4211 10.9338 17.5769 8.97234 18.0341 8.55637L18.9457 9.385L15.8472 12.204ZM20.5214 7.95148L19.8569 8.55602L18.9454 7.72738L19.61 7.12266C19.8615 6.89418 20.2703 6.89422 20.5216 7.12266C20.7729 7.35117 20.7742 7.7216 20.5214 7.95148Z" fill="#6C6C6C"/>
</svg>
