<svg width="18" height="22" viewBox="0 0 18 22" fill="none" xmlns="http://www.w3.org/2000/svg">
<path d="M17.89 21.3741L16.8749 20.3815V7.5482L16.6885 7.36597L14.9999 5.71487V0H0V19.0667H1.87499V20.9H16.3447L17.3598 21.8926C17.4329 21.9641 17.5289 22 17.6249 22C17.7209 22 17.8169 21.9641 17.89 21.8926C18.0367 21.7492 18.0367 21.5175 17.89 21.3741ZM15.5947 7.33333H11.2499V3.08513L14.9999 6.7518L15.5947 7.33333ZM0.749996 18.3333V0.733333H14.2499V4.98153L11.2166 2.01557L11.0302 1.83333H1.87499V18.3333H0.749996ZM2.62499 20.1667V19.0667V2.56667H10.4999V8.06667H16.1249V19.6482L13.3072 16.8931C13.9597 16.1377 14.3553 15.1635 14.3553 14.0994C14.3553 11.708 12.3656 9.7625 9.91982 9.7625C7.47409 9.7625 5.48435 11.708 5.48435 14.0994C5.48435 16.4908 7.47409 18.4364 9.91982 18.4364C11.0081 18.4364 12.0044 18.0495 12.7769 17.4115L15.5947 20.1667H2.62499ZM9.91982 17.703C7.88771 17.703 6.23434 16.0864 6.23434 14.0994C6.23434 12.1125 7.88771 10.4958 9.91982 10.4958C11.9519 10.4958 13.6053 12.1125 13.6053 14.0994C13.6053 16.0864 11.9519 17.703 9.91982 17.703Z" fill="#6C6C6C"/>
<path d="M7.73425 13.2H9.98424C10.1916 13.2 10.3592 13.0361 10.3592 12.8333C10.3592 12.6306 10.1916 12.4667 9.98424 12.4667H7.73425C7.52688 12.4667 7.35925 12.6306 7.35925 12.8333C7.35925 13.0361 7.52688 13.2 7.73425 13.2Z" fill="#6C6C6C"/>
<path d="M12.2342 14.6667H7.73425C7.52688 14.6667 7.35925 14.8306 7.35925 15.0334C7.35925 15.2361 7.52688 15.4 7.73425 15.4H12.2342C12.4416 15.4 12.6092 15.2361 12.6092 15.0334C12.6092 14.8306 12.4416 14.6667 12.2342 14.6667Z" fill="#6C6C6C"/>
</svg>
