<svg width="30" height="20" viewBox="0 0 30 20" fill="none" xmlns="http://www.w3.org/2000/svg">
<path d="M14.1984 15.8981L13.3928 15.1598V5.61437L13.2449 5.47882L11.9047 4.25073V0H0V14.1818H1.48809V15.5455H12.972L13.7776 16.2837C13.8356 16.3369 13.9118 16.3636 13.988 16.3636C14.0642 16.3636 14.1404 16.3369 14.1984 16.2837C14.3148 16.1771 14.3148 16.0047 14.1984 15.8981ZM12.3767 5.45455H8.92852V2.29473L11.9047 5.022L12.3767 5.45455ZM0.595235 13.6364V0.545455H11.3095V3.70528L8.90204 1.49918L8.75412 1.36364H1.48809V13.6364H0.595235ZM2.08332 15V14.1818V1.90909H8.33329V6H12.7976V14.6144L10.5613 12.5651C11.0791 12.0033 11.3931 11.2786 11.3931 10.4872C11.3931 8.70846 9.81394 7.26137 7.87288 7.26137C5.93181 7.26137 4.35266 8.70846 4.35266 10.4872C4.35266 12.2659 5.93181 13.713 7.87288 13.713C8.73656 13.713 9.52733 13.4253 10.1404 12.9507L12.3767 15H2.08332ZM7.87288 13.1676C6.26009 13.1676 4.94789 11.9651 4.94789 10.4872C4.94789 9.00928 6.26009 7.80682 7.87288 7.80682C9.48566 7.80682 10.7979 9.00928 10.7979 10.4872C10.7979 11.9651 9.48566 13.1676 7.87288 13.1676Z" fill="#121212"/>
<path d="M6.13838 9.8181H7.92408C8.08866 9.8181 8.2217 9.69619 8.2217 9.54537C8.2217 9.39455 8.08866 9.27264 7.92408 9.27264H6.13838C5.97379 9.27264 5.84076 9.39455 5.84076 9.54537C5.84076 9.69619 5.97379 9.8181 6.13838 9.8181Z" fill="#121212"/>
<path d="M9.70979 10.909H6.13838C5.97379 10.909 5.84076 11.0309 5.84076 11.1818C5.84076 11.3326 5.97379 11.4545 6.13838 11.4545H9.70979C9.87437 11.4545 10.0074 11.3326 10.0074 11.1818C10.0074 11.0309 9.87437 10.909 9.70979 10.909Z" fill="#121212"/>
<path opacity="0.54" fill-rule="evenodd" clip-rule="evenodd" d="M19.5238 20L21.4276 6.36363L23.3333 20L30 19.99L21.4276 0.909989L12.8571 19.99L19.5238 20Z" fill="#040404"/>
</svg>
