<svg width="19" height="21" viewBox="0 0 19 21" fill="none" xmlns="http://www.w3.org/2000/svg">
<path fill-rule="evenodd" clip-rule="evenodd" d="M6.84784 5.4364C6.84784 3.77955 8.19098 2.4364 9.84784 2.4364C11.5047 2.4364 12.8478 3.77955 12.8478 5.4364C12.8478 7.09326 11.5047 8.4364 9.84784 8.4364C8.19098 8.4364 6.84784 7.09326 6.84784 5.4364ZM9.84784 0.436401C7.08642 0.436401 4.84784 2.67498 4.84784 5.4364C4.84784 8.19783 7.08642 10.4364 9.84784 10.4364C12.6093 10.4364 14.8478 8.19783 14.8478 5.4364C14.8478 2.67498 12.6093 0.436401 9.84784 0.436401ZM5.84784 12.4364C4.52176 12.4364 3.24999 12.9632 2.31231 13.9009C1.37462 14.8385 0.847839 16.1103 0.847839 17.4364V19.4364C0.847839 19.9887 1.29555 20.4364 1.84784 20.4364C2.40012 20.4364 2.84784 19.9887 2.84784 19.4364V17.4364C2.84784 16.6408 3.16391 15.8777 3.72652 15.3151C4.28913 14.7525 5.05219 14.4364 5.84784 14.4364H13.8478C14.6435 14.4364 15.4065 14.7525 15.9692 15.3151C16.5318 15.8777 16.8478 16.6408 16.8478 17.4364V19.4364C16.8478 19.9887 17.2956 20.4364 17.8478 20.4364C18.4001 20.4364 18.8478 19.9887 18.8478 19.4364V17.4364C18.8478 16.1103 18.3211 14.8385 17.3834 13.9009C16.4457 12.9632 15.1739 12.4364 13.8478 12.4364H5.84784Z" fill="#757575"/>
</svg>
